<svg width="24" height="24" viewBox="0 0 24 24" fill="none" xmlns="http://www.w3.org/2000/svg">
<path fill-rule="evenodd" clip-rule="evenodd" d="M17.7007 15.1956C18.0947 15.5826 18.1004 16.2158 17.7134 16.6098L12.7134 21.7007C12.5254 21.8922 12.2683 22 12 22C11.7317 22 11.4746 21.8922 11.2866 21.7007L6.28655 16.6098C5.89956 16.2158 5.90526 15.5826 6.29929 15.1956C6.69332 14.8087 7.32646 14.8144 7.71345 15.2084L11 18.5547L11 3C11 2.44771 11.4477 2 12 2C12.5523 2 13 2.44772 13 3L13 18.5547L16.2866 15.2084C16.6735 14.8144 17.3067 14.8087 17.7007 15.1956Z" fill="white"/>
</svg>
