<svg xmlns="http://www.w3.org/2000/svg" width="20" height="20" fill="none" viewBox="0 0 20 20">
  <path fill="#000" stroke="#000" d="M17.358 13.685a.152.152 0 0 0 .069-.108c.047-.34.057-.682.068-1.037l.005-.157-.142 1.302Zm0 0c-.51.381-1.054.71-1.624.997l1.624-.997Zm-.409-.32c.029-.265.037-.536.046-.839l.004-.135-.012-.216v-.017a11.185 11.185 0 0 0-.212-1.994 12.544 12.544 0 0 0-1.886-4.588.3.3 0 0 0-.153-.12c-.754-.316-1.544-.538-2.362-.734-.066.128-.125.25-.175.373a.58.58 0 0 1-.235.293.576.576 0 0 1-.406.072 8.317 8.317 0 0 0-1.217-.099c-.668-.01-1.303 0-1.923.103a.58.58 0 0 1-.248-.01.543.543 0 0 1-.36-.316 4.349 4.349 0 0 0-.192-.41l-.089.02c-.13.03-.253.06-.4.099h-.001c-.69.18-1.35.38-1.973.66a12.406 12.406 0 0 0-1.114 2.014 12.272 12.272 0 0 0-.945 3.417c-.1.8-.127 1.596-.058 2.39v.004a.3.3 0 0 0 .005.036l.02.015c.96.675 2.009 1.18 3.123 1.585.104-.15.2-.306.292-.469a8.89 8.89 0 0 1-.665-.339l-.092-.05a.606.606 0 0 1-.144-.107.526.526 0 0 1 .064-.797l.003-.002c.065-.052.124-.102.177-.152l.008-.007a.59.59 0 0 1 .695-.08l.008.006c.059.033.121.065.183.094l-.165.357c.245.128.47.234.71.302l-.023.082c.102.033.204.063.306.092a.544.544 0 0 0-.285-.174l-.023.08 9.714-.44Zm0 0c-.452.328-.934.615-1.44.87l-.001.001c-.553.28-1.12.525-1.7.733l3.141-1.604Zm-10.66.604.011-.01h.001l.077-.063c.239.123.484.235.746.31l-.014.052-.398-.2-.039.076a7.064 7.064 0 0 1-.378-.162c-.003 0-.005-.002-.007-.003Zm0 0h-.002m.001 0a8.896 8.896 0 0 0-.022.018l-.037-.046m.058.028a.339.339 0 0 0 .017-.017l.001-.002a.418.418 0 0 0 .05-.066 1.127 1.127 0 0 1-.015-.008l-.006-.003a.431.431 0 0 1-.147.012m.1.084a2.96 2.96 0 0 1-.052-.025m.052.025a.277.277 0 0 1-.019.016l-.033-.041m-.048-.06-.098-.121m.098.122h-.003m.003 0 .048.059m-.146-.181.01-.017c-.003 0-.005-.002-.007-.003l-.008.013m.005.007v.001m0-.001-.005-.007m0 0-.026-.032h-.002l.027.034m0-.002v.002m0 0-.047.081c.063.036.128.07.193.102m-.146-.184.005.007m.14.177a.166.166 0 0 0 .007.003m-.006-.003-.045-.057m0 0a.364.364 0 0 1-.138-.04l.042-.08m.096.12-.096-.12m.112-.532-.075.138h-.001l-.085.157.085-.156v-.001l.076-.138Zm0 0a.381.381 0 0 1 .092.071.48.48 0 0 1 .103.162l.155-.044a17.32 17.32 0 0 1-.21-.113h-.002l-.063-.035-.075-.04Zm4.42-2.98c-.014.566.126 1.033.409 1.417a1.761 1.761 0 0 0 2.713.198c.74-.752.777-2.038.08-2.831-.65-.74-1.699-.866-2.472-.228-.49.405-.72.959-.73 1.444Zm0 0 .5.012-.5-.01v-.002Zm3.35 4.937-.003-.002.002.002ZM3.045 13.377v-.001Zm6.328-2.965v-.006a2.083 2.083 0 0 0-.31-1.113c-.66-1.09-2.123-1.205-2.933-.215-.636.778-.614 1.969.053 2.722.592.666 1.553.823 2.306.315.617-.413.873-1.032.884-1.703Z"/>
</svg>
