<svg xmlns="http://www.w3.org/2000/svg" width="20" height="20" fill="none" viewBox="0 0 20 20">
  <path fill="#000" stroke="#000" d="M12.287 3.003c-.787-.013-4.636.015-5.761.067a3.796 3.796 0 0 0-1.575.427c-1.008.525-1.582 1.36-1.812 2.485l9.148-2.979Zm0 0c.684.011 1.316.025 1.926.158l-1.926-.158Zm2.082 13.802h.002c.713-.194 1.265-.512 1.68-.939.417-.427.718-.987.893-1.697.144-.587.159-1.195.17-1.864.017-1.103.015-2.208.013-3.318v-.235c-.002-.832-.003-1.63-.095-2.422-.073-.607-.246-1.163-.562-1.653-.528-.815-1.283-1.302-2.257-1.516l.156 13.644Zm0 0a5.45 5.45 0 0 1-1.399.176c-1.764.013-3.523.024-5.285.017m6.684-.193-6.684.193m0 0c-.66-.002-1.273-.025-1.858-.172l1.858.172ZM5.935 3.516c.48-.11.957-.136 1.405-.145l-1.406.145Zm0 0c-.885.204-1.617.68-2.081 1.515m2.08-1.515-2.08 1.516m0 0c-.318.573-.43 1.188-.453 1.777v.001m.452-1.778L3.401 6.81m0 0c-.029.767-.048 1.54-.048 2.31v.002M3.4 6.81l-.048 2.312m0 0c0 .328-.002.66-.004.994-.007 1.094-.015 2.213.07 3.323v.001m-.067-4.318.068 4.318m0 0c.039.492.15.999.403 1.476M3.42 13.44l.845 1.242m3.58 1.963h-.001a13.56 13.56 0 0 1-1.63-.11m1.63.11-1.561-.606c-.885-.122-1.591-.548-2.018-1.357m3.58 1.963c1.04.016 2.08.014 3.116.012h.311m-3.427-.012 3.427.011m-5.057-.122.068-.495-.068.495Zm0 0c-1.021-.14-1.88-.647-2.392-1.618m0 0 .442-.234m-.442.234.442-.234m7.007 1.974h.064c.776 0 1.588 0 2.397-.094.506-.059 1.018-.2 1.485-.497.846-.534 1.29-1.335 1.416-2.266.067-.491.099-.988.105-1.476l-.5-.007-4.967 4.34Zm.959-13.304.167.003c.547.01 1.153.022 1.75.154l-1.917-.157Zm0 0h-.004m.004 0h-.004m0 0c-.777-.011-4.033.002-4.887.02l4.887-.02Zm4.435 3.008a3.598 3.598 0 0 0-.407-1.328V5.03c-.469-.847-1.215-1.323-2.108-1.52l2.515 2.85ZM5.826 16.826c-.726-.183-1.293-.494-1.721-.918-.428-.425-.741-.987-.925-1.707a5.608 5.608 0 0 1-.158-1.344A547.121 547.121 0 0 1 3 7.841c.002-.653.019-1.266.14-1.858l2.686 10.843Z"/>
  <path fill="#000" d="M13.943 10.006c.01 2.118-1.74 3.828-3.83 3.854-2.17.028-3.948-1.727-3.941-3.856a3.876 3.876 0 0 1 3.87-3.858c2.146-.011 3.912 1.733 3.901 3.86Zm-1.365.006c.018-1.354-1.091-2.477-2.452-2.511a2.524 2.524 0 0 0-2.593 2.448 2.522 2.522 0 0 0 2.463 2.558c1.43.033 2.593-1.129 2.582-2.495Zm1.519-3.12a.904.904 0 0 1-.906-.896.91.91 0 0 1 .899-.907c.495-.002.916.404.916.89a.903.903 0 0 1-.91.913Z"/>
</svg>
