<svg xmlns="http://www.w3.org/2000/svg" width="20" height="20" fill="none" viewBox="0 0 20 20">
  <path fill="#000" stroke="#000" d="M15.804 4.714c-.208.082-.455.15-.724.119-.305-.035-.566-.186-.794-.418-.313-.316-.757-.481-1.29-.552a.803.803 0 0 1-.075-.012l-.01-.002-.042-.007a.5.5 0 0 0-.08-.009c-.176 0-.234.006-.466.03-.354.038-.54.108-.84.246l4.321.605Zm0 0c-.11.1-.23.194-.358.282l-.382.263.225.386a1.036 1.036 0 0 0 .038.074l.195.334.372-.105.13-.036a5.57 5.57 0 0 1-.289.235.835.835 0 0 0-.248.292.817.817 0 0 0-.08.393 9.13 9.13 0 0 1-.686 3.743c-.815 2-2.089 3.564-3.942 4.541-2.349 1.238-4.752 1.37-7.2.463 1.119-.195 2.169-.663 3.148-1.423l.997-.775-1.257-.118c-.672-.063-1.201-.262-1.617-.577-.25-.19-.469-.43-.656-.726a9.32 9.32 0 0 0 .45-.052l.19-.024.442-.051v-.449c0-.02 0-.077-.013-.144l-.06-.31-.307-.079A2.744 2.744 0 0 1 3.345 9.84a2.826 2.826 0 0 1-.513-1.049c.343.107.625.147.895.106l1.17-.178-.943-.715A2.941 2.941 0 0 1 2.865 4.89c1.76 1.85 3.937 2.89 6.539 3.076l.612.044-.08-.608a2.96 2.96 0 0 1-.011-.091v-.007a2.642 2.642 0 0 0-.012-.094v-.007l-.002-.007c-.22-1.3.428-2.563 1.572-3.087l4.321.605Z"/>
</svg>
